<svg width="32" height="37" xmlns="http://www.w3.org/2000/svg"><g fill="none" fill-rule="evenodd"><path d="M31.628 3.811L16.005.007a.262.262 0 0 0-.12 0L.26 3.811a.254.254 0 0 0-.192.226c-.02.26-1.916 26.143 15.794 32.171.11.014.138.01.165 0C33.737 30.18 31.842 4.298 31.82 4.037a.252.252 0 0 0-.193-.226z" fill="#F1F2FA"/><path d="M20.798 12.18l-4.84-1.178a.081.081 0 0 0-.037 0l-4.84 1.179a.079.079 0 0 0-.06.07c-.006.08-.594 8.099 4.893 9.966.034.005.043.003.051 0 5.487-1.867 4.9-9.886 4.893-9.966a.078.078 0 0 0-.06-.07z" fill="#798CE5"/></g></svg>
