<svg width="32" height="37" xmlns="http://www.w3.org/2000/svg"><g fill="none" fill-rule="evenodd"><path d="M31.628 3.811L16.005.007a.262.262 0 0 0-.12 0L.26 3.811a.254.254 0 0 0-.192.226c-.02.26-1.916 26.143 15.794 32.171.11.014.138.01.165 0C33.737 30.18 31.842 4.298 31.82 4.037a.252.252 0 0 0-.193-.226z" fill="#F1F2FA"/><path d="M20.15 16.805c-.441-.332-1.07-.465-1.07-.465s.532-.309.75-.617c.217-.308.326-.786.344-1.033.018-.248.06-1.288-.75-1.886-.626-.463-1.344-.647-2.308-.706V10h-1.293v2.073h-.985V10h-1.294v2.073H11v1.343h.748c.204 0 .566.023.72.195.155.172.182.263.182.598v5.352c0 .127-.024.284-.133.387-.109.103-.218.126-.478.126h-.773L11 21.628h2.544v2.067h1.294v-2.067h.985v2.067h1.293v-2.101c.334-.02.646-.045.828-.069.369-.048 1.203-.145 1.982-.689.78-.544.955-1.396.973-2.254.019-.858-.308-1.445-.749-1.777zm-5.312-3.27s.41-.036.815-.03c.405.006.762.018 1.294.182.532.163.846.562.858 1.033.012.472-.194.786-.556.985-.363.2-.864.308-1.336.326-.47.019-1.075 0-1.075 0v-2.496zm2.894 6.183c-.296.163-.888.308-1.462.35-.574.043-1.432.025-1.432.025v-2.774s.822-.043 1.462 0c.64.042 1.179.205 1.42.326.242.12.665.387.665 1.021 0 .635-.357.889-.653 1.052z" fill="#798CE5" fill-rule="nonzero"/></g></svg>
