<svg width="96" height="96" xmlns="http://www.w3.org/2000/svg"><defs><linearGradient x1="430.668%" y1="50%" x2="-1035.771%" y2="50%" id="a"><stop stop-color="#B06AB3" offset="0%"/><stop stop-color="#8983D7" offset="50.658%"/><stop stop-color="#6699F8" offset="100%"/></linearGradient></defs><g fill="none" fill-rule="evenodd"><path d="M48 0c26.51 0 48 21.49 48 48S74.51 96 48 96 0 74.51 0 48 21.49 0 48 0z" fill="url(#a)"/><path d="M52 48c0-2.2-1.8-4-4-4s-4 1.8-4 4 1.8 4 4 4 4-1.8 4-4zm-4-18c-10 0-18 8-18 18h-6l8 8 8-8h-6c0-7.8 6.2-14 14-14s14 6.2 14 14-6.2 14-14 14c-3 0-5.8-1-8.2-2.6L37 62.2c3 2.4 6.8 3.8 11 3.8 10 0 18-8 18-18s-8-18-18-18z" fill="#FFF" fill-rule="nonzero"/></g></svg>
