<svg height="17" viewBox="0 0 14 17" width="14" xmlns="http://www.w3.org/2000/svg"><path d="m13.5656031 13.6495846c-.4807041-.2041686-.6863362-.4751113-.6664502-.8793795.0204772-.4718786-.2376648-.8175103-.3602594-.9540686.074062-.2934052.2904971-1.3083955.000215-2.19000453-.3119417-.94364553-1.2643207-2.38486481-2.2470123-3.80155935-.40228874-.58179398-.42131482-1.21419813-.44329693-1.94648489-.02106843-.69845377-.04482416-1.49015732-.42040113-2.37026145-.40836203-.95830464-1.22777337-1.50782628-2.24824847-1.50782628-.60706094 0-1.23019194.19675539-1.70971366.53976747-.98193921.70280133-.85214265 2.23509663-.76625656 3.24902787.01177037.13884353.02284204.26999521.02929156.38197299.05718574.99302947.00515962 1.51640995-.0628828 1.6754864-.04401797.1039515-.2607218.39980918-.49005593.71305713-.23718105.32394967-.50607223.69115208-.72648454 1.03332809-.26297912.41173713-.47527578 1.04107568-.68058546 1.64967967-.15022003.44534718-.29210945.86600238-.43023664 1.11738108-.26179671.4835835-.19665657.9345045-.14226563 1.1429092-.0991076.0714004-.24228692.2119718-.36316165.4769506-.1460816.3232808-.44249073.4970164-1.05884973.6199188-.28324136.0600857-.47855428.1836012-.58067166.367091-.14860766.2670411-.0676662.6025843.00618079.8318907.10910435.3371038.04111568.5504692-.0825001.9378487-.02848537.0894039-.06078671.1906242-.09351802.3022676-.0515424.176188-.03294629.3363793.05514339.4761146.23277387.3690418.91201568.4991902 1.611251.5848038.41749884.0513905.87444724.2245687 1.31640051.3921174.43303143.1640928.88078927.3338153 1.28780764.3853172.06186164.0080821.12313206.0121509.18219891.0121509.61453164 0 .89218341-.4228847.98021934-.5966203.22073478-.0467085.98204672-.1963094 1.76668441-.2163752.78340154-.023187 1.54138122.1372272 1.75609645.1871127.06750496.1339944.24545793.4400521.52912926.5977351.15591711.0884006.37288967.1390665.59512935.1390665h.0000537c.2373423 0 .6888624-.0581905 1.0462195-.4480783.3564434-.3917272 1.2470144-.8918092 1.8973409-1.2569493.1451141-.081489.2808765-.1577387.3999239-.2265752.3653115-.2100211.5646553-.5101149.5468654-.8233071-.0148339-.2601295-.1808553-.4883212-.4333002-.5955055zm-8.08715893-.0754136c-.04546911-.3321989-.45753961-.6616667-.93475024-1.043138-.39019588-.311966-.83247163-.6655126-.95431379-.9649375-.25179995-.6176893-.05331602-1.70380132.29275441-2.26307712.17101973-.28002807.31070556-.70469642.44582298-1.11537453.14586661-.44345208.2967316-.90195345.46544026-1.10266624.26717131-.31335944.51408039-.92307819.55782962-1.40359609.25018758.24769998.63828737.56200696.99682686.56200696.05519713 0 .10878188-.0074689.16000181-.02246244.24529669-.07346278.60609352-.28967075.95501248-.49868852.3008163-.18025692.67177112-.40254034.81134945-.42277326.23933089.35638922 1.63000835 3.54800687 1.77211279 4.57297425.1124366.81098889-.0063421 1.48140639-.06605386 1.74398849-.04804892-.0068001-.10534214-.0123181-.16553765-.0123181-.38734734 0-.48989469.2192735-.51660644.3502023-.06868738.3401694-.07594309 1.4278979-.07669553 1.6723093-.14006205.1845488-.84838044 1.0536167-1.8653083 1.2098506-.41422033.0624266-.80103022.0940858-1.1496267.0940858-.29796776 0-.48812107-.0238559-.56707393-.0362855l-.51101687-.6063744c.20149372-.1031712.40293368-.3208841.34983265-.713726zm.64844535-9.99862952c-.01596255.00713447-.03165638.01477059-.04708148.02290835-.00155864-.03589532-.00515962-.07229228-.01069545-.10880072-.05578834-.33303497-.26872995-.57477098-.50623347-.57477098-.01757494 0-.03525737.00139345-.05465967.00445905-.14129821.02441327-.25212244.13449596-.31285541.29056256.05326228-.34245471.24035207-.59600719.462323-.59600719.26066805 0 .48086536.36430403.48086536.79549374 0 .05434462-.00381596.10841055-.01166288.16615519zm2.02547135.25678529c.02386322-.07881363.03676225-.16409288.03676225-.25260494 0-.39094682-.23916965-.69722752-.54450061-.69722752-.29839773 0-.54116836.31274631-.54116836.69722752 0 .0261969.00123615.05244953.00360098.07864642-.01580132-.0062984-.03122642-.01242959-.0462753-.01833782-.03434369-.10785317-.05170364-.22038833-.05170364-.3352645 0-.46747519.2880785-.84783179.64226457-.84783179.35413232 0 .64226457.3803566.64226457.84783179 0 .19447013-.05175739.38007791-.14124446.52756084zm-.26115176.90986826c-.00510587.02363294-.01596256.0341117-.1360311.09887934-.06062548.03271825-.13608485.07346277-.23051655.13310251l-.06309779.03962977c-.25357358.15941088-.84730552.53280021-1.00848974.55470527-.10948058.01527224-.17720052-.02876084-.32946291-.13605663-.03434369-.02424606-.07089096-.04999704-.1098568-.07591525-.27448077-.18677827-.45103634-.39250749-.4709761-.47293752.08948707-.0717349.31129676-.25126723.42486204-.35755973.23051655-.22228342.46248424-.37166145.57728567-.37166145.00607329 0 .01155539.0004459.01725246.00156067.13490243.02469196.46764385.16242073.71068321.26297221.11232912.04648555.20934063.08661696.27759804.11203352.2150377.07658411.32715183.17457164.34074957.21124729zm1.93200707 10.38790417c.12130469-.5674693.26104422-1.3394416.23841722-1.7945429-.0052134-.1033941-.0140277-.2159293-.0225733-.32473-.0159626-.203444-.03966457-.505823-.0152101-.5955055.0048371-.002341.0102117-.0043476.0161775-.0060755.0010212.2601853.0555196.7791625.4557122.960144.1192624.0539545.2555622.0812661.4050836.0812661.4008913 0 .8456931-.2039456 1.027892-.3928976.107277-.1112532.1975165-.2473656.2607218-.355163.0138127.0419707.0223046.096817.0178437.1674929-.0238095.3837566.1560246.8928681.498279 1.0804825l.0498226.0271444c.1218959.0663283.4456617.2426278.4508751.3262349-.0000538.0000558-.0027411.0098657-.0207997.027256-.0811027.0768627-.3665477.2280244-.6425871.3742254-.4896797.2592935-1.0447145.5532003-1.2939884.8250906-.3509613.383032-.7479292.640319-.9876363.640319-.0288616 0-.0551434-.0037902-.0785229-.0114821-.26034558-.0841645-.47463083-.4737178-.35950692-1.0292592zm-8.874054-1.4476849c-.02655052-.1288664-.04751145-.2305884-.02499189-.3291333.01633879-.0730169.3639141-.1512731.51236052-.1846602.20869567-.0469872.42453957-.0955351.56567653-.1843816.19085201-.1198925.29420555-.3410055.38535874-.5360887.06600008-.1410731.13414999-.2869396.21525269-.3348186.00456841-.0027869.01155539-.0060197.02488439-.0060197.15193991 0 .47076112.3312513.65446491.6277221.04659777.0747448.13291383.224513.23277388.3979141.29866646.5182526.70761969 1.2280769.92120625 1.465967.19246439.213867.50402989.6250467.42738811.9777015-.05611082.2736182-.35483102.4961246-.42529201.5453413-.0255831.0060197-.05723948.0090853-.09448545.0090853-.408792 0-1.21799161-.3527105-1.65274291-.54222l-.06433395-.0280362c-.24277063-.1055679-.63909356-.1720634-1.0223562-.2363852-.30495475-.0512233-.72256108-.121286-.79178591-.1846045-.05611082-.0652692.00897558-.2774641.06637629-.4646883.04133067-.1345517.08400498-.2736739.10738449-.4193175.03316127-.2323162-.00585831-.4214355-.03713848-.5733775z" fill="#494b6f"/></svg>