<svg height="16" viewBox="0 0 13 16" width="13" xmlns="http://www.w3.org/2000/svg"><path d="m.66198387 5.75264519c.69786049-1.19183132 1.96368472-1.9444073 3.30330924-1.96376243.01332935-.00025267.02686455-.00040428.0406056-.00040428.57614662 0 1.12038517.21204733 1.60055024.39918061.35906878.13988251.66914322.2607131.90809353.2607131.21265189 0 .52097653-.11936506.87793526-.25757989.51711668-.200222 1.16078491-.44941299 1.83270722-.44941299.08604887 0 .17173749.00409338.25474995.01222961.57208089.02415601 1.99301959.22493391 2.92010359 1.55715309.0195565.02809778.0267616.06286627.0198653.09627029-.0068962.03345456-.0272248.06271467-.0564052.08116016l-.0125574.00768141c-.2693659.16363423-1.61249 1.06645252-1.5952494 2.77132112.0185788 2.09843981 1.7859773 2.86834951 1.9874614 2.94925691.0016983.0007075.0077712.0031838.009418.0039418.0597505.0269355.0891882.0937435.0683451.1549421l-.004426.0136952c-.1094653.3443495-.4338983 1.2454495-1.0806545 2.1735356-.6197886.8888705-1.3222809 1.896449-2.46644272 1.9173708-.53482052.0098544-.89677131-.1445823-1.24817186-.2938645-.35654701-.1515057-.72523968-.3082165-1.3029817-.3082165-.60728273 0-.9944512.1619665-1.36880497.3186269-.33343939.1394276-.67830393.2837067-1.15553551.3024049-.0196595.0007581-.03885581.0011118-.05800065.0011118-1.01575756 0-1.75736299-.9337461-2.48985918-1.9739706-1.46746268-2.0806513-2.31107102-5.51216931-.98405534-7.77338421zm8.81695052-5.75254838c.06306623-.0025697.11906554.046305.12608373.11210949.08909202.83973784-.20542827 1.77722507-.7878893 2.50772545-.55341353.6918037-1.36377078 1.12144756-2.1149608 1.12144756-.0527339-.00005039-.10566275-.00216661-.15751937-.00634867-.05736396-.00458515-.10376199-.05008397-.11131629-.10903592-.12047893-.94222355.33682438-1.87698992.8049474-2.43763813.55083044-.66701365 1.47240651-1.15591178 2.24065463-1.18825978z" fill="#494b6f"/></svg>