<?xml version="1.0" encoding="utf-8"?>
<!-- Generator: Adobe Illustrator 22.0.1, SVG Export Plug-In . SVG Version: 6.00 Build 0)  -->
<svg version="1.1" id="Слой_1" xmlns="http://www.w3.org/2000/svg" xmlns:xlink="http://www.w3.org/1999/xlink" x="0px" y="0px"
	 viewBox="0 0 462.3 462.3" style="enable-background:new 0 0 462.3 462.3;" xml:space="preserve">
<style type="text/css">
	.st0{fill:#834FE8;stroke:#333333;stroke-width:8;stroke-miterlimit:10;}
	.st1{fill:none;stroke:#333333;stroke-width:8;stroke-miterlimit:10;}
	.st2{fill:#F2F2F2;stroke:#333333;stroke-width:8;stroke-miterlimit:10;}
	.st3{fill:#D76CFF;stroke:#333333;stroke-width:8;stroke-miterlimit:10;}
	.st4{fill:#FFC44D;stroke:#333333;stroke-width:8;stroke-miterlimit:10;}
	.st5{fill:#A16BFF;}
	.st6{fill:#6B48CC;}
	.st7{fill:#FFFFFF;}
	.st8{fill:#DBDBDB;}
</style>
<g>
	<path class="st0" d="M275.6,401.3L165.3,451c-98.6,25.3-115.8-84.1-66.8-118.6l83.1-56.6V155c0-24.6,20.1-44.8,44.8-44.8h76.7
		c24.6,0,44.8,20.1,44.8,44.8v185.7C347.8,365.4,338.1,373.9,275.6,401.3z"/>
	<path class="st1" d="M356.5,52.1l13.1-33.6c0,0,6.2-16.7,20.7-9.3c16.4,10.1,0,25.9,0,25.9l-23.2,22.5L356.5,52.1z"/>
	<path class="st2" d="M337.6,173.3H191.8c-24.8,0-45-20.3-45-45V83c0-24.8,20.3-45,45-45h145.8c24.8,0,45,20.3,45,45v45.3
		C382.6,153,362.4,173.3,337.6,173.3z"/>
	<path class="st3" d="M176.6,445.9c-19.1,9.3-74.2,22.2-96.3-21.6s-0.8-84,26.2-97.5C137.1,352.7,165.4,397.5,176.6,445.9z"/>
	<path class="st3" d="M347.8,275.4c0,0,0,55,0,56s4.6,29.4-17.1,41.9S278.5,400,278.5,400S267.6,309.9,347.8,275.4z"/>
	<rect x="181.6" y="208.6" class="st4" width="166.2" height="37.8"/>
	<path class="st5" d="M209.7,290.2L209.7,290.2c-3.8,0-6.9-3.1-6.9-6.9v-20.8c0-3.8,3.1-6.9,6.9-6.9h0c3.8,0,6.9,3.1,6.9,6.9v20.8
		C216.6,287.1,213.5,290.2,209.7,290.2z"/>
	<path class="st5" d="M137.7,332.8L137.7,332.8c-2.1-3.1-1.3-7.5,1.8-9.6l66-44.9c3.1-2.1,7.5-1.3,9.6,1.8l0,0
		c2.1,3.1,1.3,7.5-1.8,9.6l-66,44.9C144.1,336.7,139.8,335.9,137.7,332.8z"/>
	<path class="st6" d="M181.3,419.3L181.3,419.3c-1.6-3.5,0-7.6,3.4-9.1l72.7-32.9c3.5-1.6,7.6,0,9.1,3.4l0,0c1.6,3.5,0,7.6-3.4,9.1
		l-72.7,32.9C186.9,424.3,182.8,422.8,181.3,419.3z"/>
	<path class="st7" d="M185.5,156L185.5,156c-11.2,0-20.3-9.2-20.3-20.3V74.2c0-11.2,9.2-20.3,20.3-20.3h0c11.2,0,20.3,9.2,20.3,20.3
		v61.5C205.8,146.8,196.7,156,185.5,156z"/>
	<path class="st8" d="M345.6,156L345.6,156c-10.8,0-19.6-8.8-19.6-19.6V73.5c0-10.8,8.8-19.6,19.6-19.6h0c10.8,0,19.6,8.8,19.6,19.6
		v62.9C365.2,147.2,356.4,156,345.6,156z"/>
</g>
</svg>
